<svg width="11" height="11" viewBox="0 0 11 11" fill="none" xmlns="http://www.w3.org/2000/svg">
<path d="M9.77778 0H1.22222C0.55 0 0 0.55 0 1.22222V9.77778C0 10.45 0.55 11 1.22222 11H9.77778C10.45 11 11 10.45 11 9.77778V1.22222C11 0.55 10.45 0 9.77778 0ZM4.71167 8.12167C4.65513 8.17832 4.58798 8.22326 4.51405 8.25393C4.44012 8.2846 4.36087 8.30038 4.28083 8.30038C4.2008 8.30038 4.12155 8.2846 4.04762 8.25393C3.97369 8.22326 3.90654 8.17832 3.85 8.12167L1.65611 5.92778C1.59953 5.8712 1.55465 5.80403 1.52403 5.73011C1.49341 5.65619 1.47765 5.57696 1.47765 5.49694C1.47765 5.41693 1.49341 5.3377 1.52403 5.26378C1.55465 5.18986 1.59953 5.12269 1.65611 5.06611C1.71269 5.00953 1.77986 4.96465 1.85378 4.93403C1.9277 4.90341 2.00693 4.88765 2.08694 4.88765C2.16696 4.88765 2.24619 4.90341 2.32011 4.93403C2.39403 4.96465 2.4612 5.00953 2.51778 5.06611L4.27778 6.82611L8.48222 2.62167C8.59649 2.5074 8.75146 2.44321 8.91305 2.44321C9.07465 2.44321 9.22963 2.5074 9.34389 2.62167C9.45815 2.73593 9.52235 2.89091 9.52235 3.0525C9.52235 3.21409 9.45815 3.36907 9.34389 3.48333L4.71167 8.12167Z" fill="#329C89"/>
</svg>
