<svg width="11" height="11" viewBox="0 0 11 11" fill="none" xmlns="http://www.w3.org/2000/svg">
<path d="M2.13836 1.32592C1.80684 1.32592 1.4889 1.45762 1.25448 1.69204C1.02006 1.92646 0.888364 2.2444 0.888364 2.57592V6.65487C0.888364 6.98639 1.02006 7.30434 1.25448 7.53876C1.4889 7.77318 1.80684 7.90487 2.13836 7.90487H2.99363V9.9675L5.91547 7.90487H8.84889C9.18041 7.90487 9.49835 7.77318 9.73277 7.53876C9.9672 7.30434 10.0989 6.98639 10.0989 6.65487V2.57592C10.0989 2.2444 9.9672 1.92646 9.73277 1.69204C9.49835 1.45762 9.18041 1.32592 8.84889 1.32592H2.13836ZM0.230469 2.57592C0.230469 2.06992 0.431479 1.58464 0.789278 1.22684C1.14708 0.86904 1.63236 0.66803 2.13836 0.66803H8.84889C9.3549 0.66803 9.84018 0.86904 10.198 1.22684C10.5558 1.58464 10.7568 2.06992 10.7568 2.57592V6.65487C10.7568 7.16088 10.5558 7.64616 10.198 8.00396C9.84018 8.36176 9.3549 8.56277 8.84889 8.56277H6.12442L3.26915 10.578C2.87705 10.8549 2.33573 10.5743 2.33573 10.0943V8.56277H2.13836C1.63236 8.56277 1.14708 8.36176 0.789278 8.00396C0.431479 7.64616 0.230469 7.16088 0.230469 6.65487V2.57592Z" fill="#BEBEBE"/>
</svg>
